# xmcd CD database file
#
# Track frame offsets:
#	150
#	35947
#	66517
#	92077
#	124425
#	143360
#	169837
#	185380
#	197982
#	213105
#	226860
#	239882
#	252390
#	270312
#
# Disc length: 3778 seconds
#
# Revision: 2
# Processed by: cddbd v1.5.1PL2 Copyright (c) Steve Scherf et al.
# Submitted via: CDex 1.51
#
DISCID=d40ec00e
DTITLE=Lightnin Hopkins,Sonny terry,BJ Williams,BMac Ghee - Rediscovered Blues Disc 1
DYEAR=1900
DGENRE=Blues
TTITLE0=Ain't Nothin' Like Whiskey
TTITLE1=Penitentiary Blues
TTITLE2=If You Steal My Chickens, You Can't Make 'Em Lay
TTITLE3=First Meeting
TTITLE4=How Long Have It Been Since You Been Home?
TTITLE5=Wimmin From Coast To Coast
TTITLE6=Key To The Highway
TTITLE7=Lose Your Money
TTITLE8=Louise
TTITLE9=Sportin' Life
TTITLE10=New Harmonica Breakdown
TTITLE11=Prison Bound
TTITLE12=Livin' With The Blues
TTITLE13=Blowin' The Blues
EXTD=
EXTT0=
EXTT1=
EXTT2=
EXTT3=
EXTT4=
EXTT5=
EXTT6=
EXTT7=
EXTT8=
EXTT9=
EXTT10=
EXTT11=
EXTT12=
EXTT13=
PLAYORDER=
